<?xml version="1.0" encoding="utf-8"?><svg version="1.1" id="Layer_1" xmlns="http://www.w3.org/2000/svg" xmlns:xlink="http://www.w3.org/1999/xlink" x="0px" y="0px" viewBox="0 0 122.88 57.1" style="enable-background:new 0 0 122.88 57.1" xml:space="preserve"><style type="text/css">.st0{fill-rule:evenodd;clip-rule:evenodd;}</style><g><path fill = "#6D91EE" class="st0" d="M106.19,37.86c-5.33,0-9.62,4.32-9.62,9.62c0,5.33,4.32,9.62,9.62,9.62c5.33,0,9.62-4.32,9.62-9.62 C115.81,42.16,111.49,37.86,106.19,37.86L106.19,37.86z M39.38,11.18l5.45-0.02c0.99,0,1.66,0.17,2.3,1.02l1.54,2.75l1.56-0.96 l-2.69,4.7l-5.44-0.02l1.66-0.96l-2.8-4.74c-0.27-0.45-0.46-0.81-0.84-1.18C39.9,11.54,39.64,11.35,39.38,11.18L39.38,11.18z M40.69,33.98l-5.23,0.01c-1.16-0.18-1.9-0.8-2.12-1.68c-0.19-0.75,0-1.1,0.32-1.75c0.39-0.77,0.85-1.52,1.3-2.28l5.79,0.02 L40.69,33.98L40.69,33.98z M32.36,31.95l-2.74-4.71c-0.5-0.85-0.68-1.52-0.27-2.51l1.61-2.71l-1.61-0.87l5.41-0.02l2.7,4.72 l-1.67-0.96l-2.71,4.8c-0.26,0.45-0.47,0.8-0.6,1.32C32.41,31.32,32.37,31.63,32.36,31.95L32.36,31.95z M51.25,19.63l2.62,4.52 c0.42,1.09,0.25,2.05-0.39,2.68c-0.56,0.54-0.95,0.55-1.68,0.59c-0.87,0.05-1.74,0.02-2.62,0.02l-2.88-5.03L51.25,19.63 L51.25,19.63z M53.65,27.86l-2.71,4.73c-0.49,0.86-0.98,1.35-2.04,1.48l-3.15-0.04l0.06,1.83l-2.73-4.68l2.74-4.7l0,1.92l5.51-0.05 c0.52-0.01,0.93,0.01,1.44-0.14C53.08,28.13,53.37,28.01,53.65,27.86L53.65,27.86z M33.45,17.38l2.61-4.53 c0.73-0.91,1.65-1.24,2.51-1c0.75,0.21,0.96,0.55,1.35,1.16c0.47,0.73,0.89,1.5,1.32,2.26l-2.91,5.01L33.45,17.38L33.45,17.38z M61.21,38.72c-4.85,0-8.76,3.94-8.76,8.76c0,4.85,3.94,8.76,8.76,8.76c4.85,0,8.76-3.94,8.76-8.76 C69.98,42.63,66.04,38.72,61.21,38.72L61.21,38.72z M61.21,44.11c-1.86,0-3.37,1.51-3.37,3.37s1.51,3.37,3.37,3.37 c1.86,0,3.37-1.51,3.37-3.37S63.07,44.11,61.21,44.11L61.21,44.11z M23.26,38.72c-4.85,0-8.76,3.94-8.76,8.76 c0,4.85,3.94,8.76,8.76,8.76c4.85,0,8.76-3.94,8.76-8.76C32.02,42.63,28.09,38.72,23.26,38.72L23.26,38.72z M23.26,44.11 c-1.86,0-3.37,1.51-3.37,3.37s1.51,3.37,3.37,3.37c1.86,0,3.37-1.51,3.37-3.37S25.12,44.11,23.26,44.11L23.26,44.11z M47.69,50 H36.33v-2.81h11.36V50L47.69,50z M10.51,50H5.26c-1.45,0-2.75-0.62-3.7-1.6c-0.95-0.98-1.54-2.34-1.54-3.76V7.53 c0-2.28-0.33-4.15,1.51-5.99C2.48,0.59,3.78,0,5.23,0h75.12c1.45,0,2.75,0.59,3.7,1.54c0.95,0.95,1.54,2.25,1.54,3.7l0,6.78 l11.06,0.07l3.38,0.02l0,0c0.68,0.74,1.31,1.49,1.88,2.26c2.53,3.4,3.95,7.41,4.22,11.31l15.3,5.86l1.45,15.42h-4.68 c-2.16-16.84-23.38-14.8-24.03,0l-8.58,0v1.63c0,0.8-0.62,1.42-1.42,1.42l-9.44,0v-2.84h8.02V5.24c0-0.65-0.27-1.24-0.71-1.69 c-0.44-0.44-1.04-0.71-1.69-0.71H5.23c-0.65,0-1.24,0.27-1.69,0.71c-0.97,0.9-0.68,2.46-0.68,3.64v37.45c0,0.68,0.3,1.33,0.74,1.81 c0.44,0.44,1.01,0.74,1.66,0.74h5.24V50L10.51,50z M96.33,16.71l-7.16-0.09v9.05h12.01C100.69,22.4,99.16,19.52,96.33,16.71 L96.33,16.71z M106.19,43.78c-2.04,0-3.7,1.66-3.7,3.7s1.66,3.7,3.7,3.7c2.04,0,3.7-1.66,3.7-3.7S108.23,43.78,106.19,43.78 L106.19,43.78z"/></g></svg>